# xmcd
#
# Track frame offsets:
#	150
#	12210
#	30830
#	44985
#	60697
#	72645
#	90050
#	97350
#	109182
#	120045
#	130002
#
# Disc length: 1877 seconds
#
# Revision: 1
# Processed by: cddbd v1.4b41PL2 Copyright (c) Steve Scherf et al.
# Submitted via: audiograbber 1.80
#
DISCID=8b07530b
DTITLE=Ill-Eagles - The Walk
DYEAR=1900
DGENRE=
TTITLE0=The Walk
TTITLE1=Play That Country Music
TTITLE2=Nothin' But the Wheel
TTITLE3=Goodbye I'm At the Mall
TTITLE4=Juliet
TTITLE5=God Bless the Children
TTITLE6=Mercury Blues
TTITLE7=Too Much Sun
TTITLE8=Elfis
TTITLE9=We Are New Country
TTITLE10=The Walk (Reprise)
EXTD=
EXTT0=
EXTT1=
EXTT2=
EXTT3=
EXTT4=
EXTT5=
EXTT6=
EXTT7=
EXTT8=
EXTT9=
EXTT10=
PLAYORDER=
